<svg id="Capa_1" data-name="Capa 1" xmlns="http://www.w3.org/2000/svg" viewBox="0 0 283.46 127.7"><defs><style>.cls-1{fill:#20242a;}.cls-2{fill:#fd000d;}</style></defs><path class="cls-1" d="M278.43,104.6h2.95V102h-2.95V96.07h-2.81V102H273.9v2.6h1.72v13.9h2.81Zm-8.7-15.06h-2.81v29h2.81Zm-21.27,0v29h2.81v-7.83c0-3,.24-6.53,4.1-6.53,3.27,0,3.48,2.39,3.48,5.06v9.3h2.81v-9.8c0-3.85-1.05-7.16-5.62-7.16a5.54,5.54,0,0,0-4.7,2.46l-.07-.07V89.54Zm-9.86,4.21a1.9,1.9,0,1,0,1.9,1.9,1.88,1.88,0,0,0-1.9-1.9m-6.92,0a1.9,1.9,0,1,0,1.9,1.9,1.88,1.88,0,0,0-1.9-1.9M242.74,102h-2.81v2.35h-.06a7.16,7.16,0,0,0-5.66-2.81c-5,0-7.93,4-7.93,8.75,0,4.56,3.05,8.67,7.9,8.67a6.94,6.94,0,0,0,5.69-2.74h.06v2.28h2.81Zm-8.21,2.14c3.48,0,5.54,2.67,5.54,6s-1.89,6.25-5.5,6.25-5.41-3.06-5.41-6.29c0-3.08,2.11-5.93,5.37-5.93M212.31,115.9,224.18,102H208.84v2.6h9.69l-11.9,13.9h17.06v-2.6ZM185.52,102h-2.8v16.5h2.8v-7.83c0-3,.25-6.53,4.11-6.53,3.27,0,3.48,2.39,3.48,5.06v9.3h2.81v-9.8c0-3.85-1.06-7.16-5.62-7.16a5.54,5.54,0,0,0-4.71,2.46h-.07ZM165,108.46a5.22,5.22,0,0,1,5-4.32,5,5,0,0,1,4.85,4.32Zm12.82,2.39c.27-4.92-2.53-9.31-7.84-9.31-5.16,0-8,4-8,8.92s3.16,8.5,8.08,8.5a8.33,8.33,0,0,0,7.61-4.64L175.29,113c-1.09,2-2.64,3.41-5,3.41a5.34,5.34,0,0,1-5.41-5.51ZM157.46,102h-2.81v2.35h-.07a6.86,6.86,0,0,0-5.61-2.81c-4.89,0-8,4.15-8,8.78s3.06,8.64,7.87,8.64a7.3,7.3,0,0,0,5.72-2.74h.07v2c0,3.71-1,6.91-5.3,6.91a4.91,4.91,0,0,1-5.27-5h-2.81c.11,4.68,3.52,7.59,8.11,7.59a8,8,0,0,0,6.39-2.91c1.69-2.18,1.69-4.46,1.69-7.1Zm-8.22,2.14c3.48,0,5.55,2.67,5.55,6s-1.89,6.25-5.51,6.25-5.41-3.06-5.41-6.29c0-3.08,2.11-5.93,5.37-5.93M133,102h-2.81v16.5H133v-8.25c0-2.14.14-6.11,3.23-6.11a2.72,2.72,0,0,1,1.69.74l1.33-2.56a5,5,0,0,0-2.53-.78c-1.82,0-2.66.95-3.65,2.25H133Zm-15.72,2.14a6.12,6.12,0,1,1-5.86,6.11,5.87,5.87,0,0,1,5.86-6.11m0,14.82a8.71,8.71,0,1,0-8.67-8.67,8.62,8.62,0,0,0,8.67,8.67M85.89,102H83.08v16.5h2.81V110c0-2.49.35-5.83,3.65-5.83,2.71,0,2.95,3,2.95,5v9.37H95.3v-8.74c0-2.49.35-5.62,3.58-5.62,2.88,0,3,2.63,3,4.78v9.58h2.81v-10c0-3.48-1-6.92-5.27-6.92a5.52,5.52,0,0,0-5,2.74,5,5,0,0,0-4.56-2.74,4.66,4.66,0,0,0-4,2.25h-.07Zm-17,2.6a5,5,0,0,0-4.38-3.06,4.71,4.71,0,0,0-4.92,4.67c0,5.2,7.44,3.94,7.44,7.62a2.5,2.5,0,0,1-2.66,2.53c-1.87,0-2.67-1.09-3.38-2.63l-2.49,1A5.94,5.94,0,0,0,64.28,119a5.4,5.4,0,0,0,5.58-5.37c0-2.78-1.89-3.94-3.83-4.74s-3.82-1.37-3.82-2.88a2,2,0,0,1,2-1.83,2.63,2.63,0,0,1,2.25,1.69ZM54.11,102H51.3v2.35h-.07a7.16,7.16,0,0,0-5.65-2.81c-4.95,0-7.94,4-7.94,8.75,0,4.56,3,8.67,7.9,8.67a6.93,6.93,0,0,0,5.69-2.74h.07v2.28h2.81Zm-8.22,2.14c3.48,0,5.55,2.67,5.55,6s-1.9,6.25-5.51,6.25-5.41-3.06-5.41-6.29c0-3.08,2.11-5.93,5.37-5.93M4,92H.82L11,119.87l8.56-21.31,8.57,21.31L38.24,92H35.05L28.1,111.86l-8.57-21.2L11,111.86Z"/><path class="cls-2" d="M3.18,3.19H74.67V74.67H3.18ZM0,0V77.85H77.85V0Z"/><polygon class="cls-2" points="69.18 9.9 40.13 9.9 22.35 38.93 40.13 67.96 69.18 67.96 51.4 38.93 69.18 9.9"/><path class="cls-1" d="M109.42,61.12h6.24c7.48,0,14.22-1.58,14.22-9.4,0-9-7.9-10.23-15.06-10.23h-5.4Zm0-26.45H114c8.07,0,14.89-.75,14.89-9.31,0-6.91-5.91-8.65-10.73-8.65h-8.73ZM101.1,9.89h15.72c12.06,0,20.37,3.91,20.37,14.64,0,8-4.65,12-12,13.8v.17c7.9.66,13.47,5.82,13.47,14,0,12.48-10.31,15.47-22.12,15.47H101.1Z"/><polygon class="cls-1" points="151.08 9.89 159.39 9.89 159.39 60.62 182.5 60.62 182.5 67.94 151.08 67.94 151.08 9.89"/><polygon class="cls-1" points="191.11 9.89 199.42 9.89 199.42 35.42 224.21 9.89 235.27 9.89 207.99 37.33 237.43 67.94 225.29 67.94 199.42 39.5 199.42 67.94 191.11 67.94 191.11 9.89"/><path class="cls-1" d="M254.19,61.12h6.24c7.48,0,14.22-1.58,14.22-9.4,0-9-7.9-10.23-15-10.23h-5.41Zm0-26.45h4.57c8.07,0,14.89-.75,14.89-9.31,0-6.91-5.9-8.65-10.73-8.65h-8.73ZM245.87,9.89h15.72C273.65,9.89,282,13.8,282,24.53c0,8-4.65,12-12,13.8v.17c7.9.66,13.47,5.82,13.47,14,0,12.48-10.31,15.47-22.12,15.47H245.87Z"/></svg>