<svg xmlns="http://www.w3.org/2000/svg" width="88.121" height="24" viewBox="0 0 88.121 24">
    <g fill="none" fill-rule="evenodd">
        <g fill-rule="nonzero">
            <g>
                <path fill="#FD000D" d="M24.087 24V0H0v23.97l24.087.03zM.991.986h22.136v22.028H.991V.986z"/>
                <path fill="#FD000D" d="M21.411 2.667L12.278 2.667 6.691 11.651 12.278 20.667 21.411 20.667 15.824 11.651z"/>
                <g fill="#20242A">
                    <path d="M0 0h4.86c3.745 0 6.314 1.185 6.314 4.435 0 2.43-1.455 3.646-3.714 4.193v.06c2.445.213 4.178 1.763 4.178 4.254 0 3.797-3.188 4.709-6.84 4.709H0V0zm2.569 7.534h1.424c2.507 0 4.612-.212 4.612-2.825 0-2.096-1.826-2.613-3.312-2.613H2.569v5.438zm0 8.02h1.92c2.32 0 4.394-.486 4.394-2.855C8.883 9.965 6.438 9.6 4.21 9.6H2.569v5.954zM15.476 0L18.045 0 18.045 15.403 25.195 15.403 25.195 17.62 15.476 17.62zM27.857 0L30.426 0 30.426 7.747 38.102 0 41.538 0 33.088 8.324 42.188 17.62 38.443 17.62 30.426 8.992 30.426 17.62 27.857 17.62zM44.819 0h4.86c3.745 0 6.314 1.185 6.314 4.435 0 2.43-1.455 3.646-3.714 4.193v.06c2.445.213 4.178 1.763 4.178 4.254 0 3.797-3.188 4.709-6.84 4.709h-4.798V0zm2.569 7.534h1.424c2.507 0 4.612-.212 4.612-2.825 0-2.096-1.826-2.613-3.312-2.613h-2.693v5.438h-.031zm0 8.02h1.92c2.32 0 4.394-.486 4.394-2.855 0-2.734-2.445-3.099-4.673-3.099h-1.672v5.954h.031z" transform="translate(31.663939, 3.454852)"/>
                </g>
            </g>
        </g>
    </g>
</svg>
