<svg id="Capa_1" data-name="Capa 1" xmlns="http://www.w3.org/2000/svg" viewBox="0 0 283.46 77.73"><defs><style>.cls-1{fill:#fd000d;}.cls-2{fill:#fff;}</style></defs><path class="cls-1" d="M3.18,3.18H74.67V74.55H3.18ZM0,0V77.72H77.85V0Z"/><polygon class="cls-1" points="69.18 9.88 40.13 9.88 22.35 38.87 40.13 67.85 69.18 67.85 51.4 38.87 69.18 9.88"/><path class="cls-2" d="M109.42,61h6.24c7.48,0,14.22-1.58,14.22-9.38,0-9-7.9-10.22-15.06-10.22h-5.4Zm0-26.4H114c8.07,0,14.89-.75,14.89-9.3,0-6.9-5.91-8.64-10.73-8.64h-8.73ZM101.1,9.87h15.72c12.06,0,20.37,3.91,20.37,14.62,0,8-4.65,12-12,13.78v.17c7.9.66,13.47,5.81,13.47,13.94,0,12.46-10.31,15.45-22.12,15.45H101.1Z"/><polygon class="cls-2" points="151.08 9.87 159.39 9.87 159.39 60.52 182.5 60.52 182.5 67.83 151.08 67.83 151.08 9.87"/><polygon class="cls-2" points="191.11 9.87 199.42 9.87 199.42 35.36 224.21 9.87 235.27 9.87 207.99 37.27 237.43 67.83 225.29 67.83 199.42 39.43 199.42 67.83 191.11 67.83 191.11 9.87"/><path class="cls-2" d="M254.19,61h6.24c7.48,0,14.22-1.58,14.22-9.38,0-9-7.9-10.22-15-10.22h-5.41Zm0-26.4h4.57c8.07,0,14.89-.75,14.89-9.3,0-6.9-5.9-8.64-10.73-8.64h-8.73ZM245.87,9.87h15.72c12.06,0,20.37,3.91,20.37,14.62,0,8-4.65,12-12,13.78v.17c7.9.66,13.47,5.81,13.47,13.94,0,12.46-10.31,15.45-22.12,15.45H245.87Z"/></svg>